<?xml version="1.0" standalone="no"?>
<!DOCTYPE svg PUBLIC "-//W3C//DTD SVG 20010904//EN"
 "http://www.w3.org/TR/2001/REC-SVG-20010904/DTD/svg10.dtd">
<svg version="1.0" xmlns="http://www.w3.org/2000/svg"
 width="66.000000pt" height="67.000000pt" viewBox="0 0 66.000000 67.000000"
 preserveAspectRatio="xMidYMid meet">
<metadata>
Created by potrace 1.16, written by Peter Selinger 2001-2019
</metadata>
<rect width="66.000000pt" height="67.000000pt" fill="#64aceb"></rect>
<g transform="translate(0.000000,67.000000) scale(0.100000,-0.100000)"
fill="#924848" stroke="none">
<path d="M120 653 c-18 -8 -47 -12 -62 -9 -45 9 -58 -2 -58 -48 l0 -41 42 0
c39 0 43 -2 43 -25 0 -19 -10 -30 -42 -48 l-43 -23 0 -230 0 -229 42 0 c29 0
55 9 90 31 42 27 52 30 74 21 14 -7 24 -20 24 -32 0 -17 6 -20 49 -20 l49 0
-19 52 c-11 29 -31 63 -45 76 -35 31 -98 30 -146 -3 -59 -40 -108 -30 -108 22
0 36 34 63 80 63 22 0 59 5 83 12 80 21 147 -16 180 -101 17 -43 30 -58 59
-73 33 -17 43 -18 75 -8 52 17 91 55 119 118 12 29 30 55 39 58 12 5 15 26 15
120 l0 114 -25 0 c-28 0 -49 31 -40 60 4 11 20 27 36 35 27 14 29 20 29 70 0
41 -4 55 -14 55 -8 0 -18 -9 -21 -20 -11 -33 -45 -44 -152 -46 -109 -2 -131 6
-120 46 5 19 0 20 -96 19 -67 0 -114 -6 -137 -16z m144 -64 c34 -16 52 -62 38
-94 -15 -32 -68 -34 -106 -4 -35 28 -33 77 4 96 31 16 33 16 64 2z m246 -85
c19 -22 1 -66 -32 -78 -52 -18 -110 40 -78 79 17 20 94 20 110 -1z m-336 -106
c35 -49 3 -98 -64 -98 -61 0 -80 51 -35 95 31 32 78 33 99 3z m200 -29 c35
-28 36 -75 2 -91 -20 -8 -32 -7 -62 9 -45 23 -58 52 -38 82 19 27 63 27 98 0z
m220 -5 c24 -24 19 -48 -19 -94 -19 -23 -43 -61 -54 -85 -22 -50 -34 -59 -66
-51 -43 11 -43 50 -1 96 20 22 36 47 36 56 0 27 30 75 53 84 31 12 34 12 51
-6z"/>
<path d="M617 45 l-38 -45 40 0 41 0 0 45 c0 25 -1 45 -2 45 -2 -1 -20 -21
-41 -45z"/>
</g>
</svg>
